<?xml version="1.0" encoding="utf-8"?>
<!-- Generator: Adobe Illustrator 16.0.0, SVG Export Plug-In . SVG Version: 6.00 Build 0)  -->
<!DOCTYPE svg PUBLIC "-//W3C//DTD SVG 1.1//EN" "http://www.w3.org/Graphics/SVG/1.1/DTD/svg11.dtd">
<svg version="1.1" id="Layer_1" xmlns="http://www.w3.org/2000/svg" xmlns:xlink="http://www.w3.org/1999/xlink" x="0px" y="0px"
	 width="543.883px" height="583.352px" viewBox="1223.244 123.297 543.883 583.352"
	 enable-background="new 1223.244 123.297 543.883 583.352" xml:space="preserve">
<g>
	<path fill="#FFFFFF" d="M1705.306,434.924c20.605-0.035,41.215-0.449,61.82-0.807c-5.596-144.129-130.568-238.917-272.66-238.917
		c-143.02,0-267.215,96.028-271.223,241.746c10.412,1.623,21.25,1.735,31.242,1.984c19.889,0.493,39.6,1.753,59.492,3.117
		c16.893,1.158,9.85,26.591-7.068,25.639c-26.957-1.516-53.551-1.834-83.002-3.524c1.809,23.729,6.832,46.382,14.59,67.652
		c25.957-9.961,50.504-23.718,76.389-33.928c15.971-6.3,22.828,19.424,7.07,25.638c-24.844,9.802-48.342,22.805-73.1,32.642
		c44.25,90.558,140.346,150.482,246.391,150.482c105.145,0,200.516-58.922,245.252-148.201c-3.969-1.347-7.729-2.777-11.055-3.971
		c-17.756-6.393-34.967-14.543-52.934-20.316c-16.256-5.224-9.303-30.899,7.066-25.64c15.094,4.849,29.574,11.633,44.414,17.187
		c7.67,2.87,15.404,5.732,23.297,7.948c8.533-22.83,13.906-47.272,15.521-72.942c-20.504,0.359-41,0.77-61.504,0.802
		C1688.16,461.542,1688.16,434.952,1705.306,434.924z M1537.109,511.991c-14.842-11.288-25.811-21.679-38.109-33.088
		c-10.535,10.477-24.25,22.567-35.248,32.565c-12.77,11.604-30.021-5.913-18.801-18.807c9.816-11.277,21.111-21.225,30.695-32.581
		c-13.412-20.679-23.064-40.949-23.064-40.949s-7.316-14.566-8.32-29.877c-0.805-12.28,2.066-19.355,8.377-22.084
		c19.676-8.501,32.547-6.457,47.611-6.072c15.414,0.393,40.479-0.488,48.58,13.36c14.609,24.984-10.053,63.521-28.914,85.5
		c8.557,9.971,21.836,19.747,33.154,30.466C1565.49,502.195,1550.626,522.269,1537.109,511.991z"/>
	<g>
		<g>
			<path fill="#FFFFFF" d="M1298.3,365.786c0.34-29.766-0.057-59.546-0.189-89.311c-0.072-15.964-0.1-31.93,0.354-47.892
				c0.346-12.212,1.148-24.404,2.48-36.548c0.467-3.87,0.527-4.386,0.18-1.545c0.461-3.212,1.043-6.402,1.631-9.596
				c1.133-6.158,2.676-12.227,4.432-18.233c-12.75,7.238-25.496,14.478-38.246,21.716c5.418,1.502,10.711,3.241,15.969,5.231
				c-2.305-1.04-1.736-0.781,1.703,0.773c2.984,1.353,5.883,2.882,8.781,4.407c4.76,2.507,9.326,5.359,13.838,8.28
				c1.77,1.166,3.52,2.361,5.248,3.583c-0.016-0.011,8.184,6.203,3.705,2.669c18.553,14.643,35.697,30.979,54.363,45.497
				c0-14.656,0-29.313,0-43.97c-0.719,0.978-1.506,1.895-2.365,2.749c-4.568,4.919,5.912-3.901-0.061,0.19
				c-3.885,2.663-8.219,4.686-12.477,6.656c-7.689,3.56,6.012-2.387-1.992,0.837c-2.393,0.966-4.811,1.882-7.223,2.807
				c-4.6,1.765-9.205,3.508-13.77,5.359c-24.482,9.93-44.041,27.682-67.828,39.024c15.596,8.949,31.189,17.897,46.787,26.847
				c-0.047,0.571,1.178-11.026,0.434-5.69c0.619-4.435,1.496-8.83,2.383-13.216c1.721-8.484,3.955-16.863,6.113-25.243
				c4.893-18.981,8.748-37.98,10.348-57.56c-20.357,2.756-40.715,5.51-61.074,8.265c6.207,16.368,15.482,27.138,29.521,37.278
				c4.133,2.984,8.695,5.404,13.129,7.896c2.277,1.28,4.545,2.576,6.799,3.899c1.18,0.692,10.057,7.037,4.414,2.538
				c2.098-16.276,4.195-32.554,6.293-48.832c-2.168,1.596-4.313,2.965-6.682,4.244c6.477-3.498-2.701,0.526-4.551,1.009
				c-7.852,2.04-15.748,3.562-23.486,6.055c-16.115,5.196-26.355,21.374-21.717,38.247c4.346,15.801,22.115,26.917,38.248,21.717
				c16.758-5.402,34.959-6.825,49.572-17.577c6.801-5.002,11.967-10.144,14.289-18.582c2.686-9.763,0.4-23.558-7.996-30.25
				c-9.055-7.22-18.283-13.022-28.311-18.712c-1.656-0.938-12.219-8.137-6.256-3.447c-1.908-1.5-3.564-3.259-5.199-5.043
				c5.594,6.105-0.918-4.386,1.895,3.029c-4.975-13.117-15.156-22.827-29.982-22.827c-17.992,0-29.711,14.207-31.092,31.092
				c0.047-0.571-1.18,11.026-0.436,5.69c-0.617,4.435-1.494,8.83-2.383,13.216c-1.719,8.484-3.953,16.863-6.113,25.243
				c-4.891,18.981-8.746,37.981-10.348,57.56c-0.871,10.668,6.537,21.655,15.398,26.846c10.213,5.983,21.119,4.897,31.387,0
				c12.357-5.894,23.773-13.3,35.078-20.983c5.184-3.522,10.244-7.435,15.719-10.491c1.771-0.989,3.639-1.815,5.482-2.656
				c-7.699,3.517-0.336,0.177,1.098-0.389c20.457-8.096,46.59-14.775,60.922-32.83c9.469-11.922,14.441-32.74,0-43.97
				c-21.572-16.78-41.385-35.667-63.092-52.282c-20.297-15.54-43.277-27.305-67.955-34.154
				c-16.521-4.586-33.502,5.491-38.248,21.716c-12.113,41.446-11.482,85.83-11.307,128.617c0.127,30.344,0.543,60.701,0.199,91.046
				c-0.193,16.951,14.289,31.092,31.092,31.092C1284.302,396.878,1298.107,382.731,1298.3,365.786L1298.3,365.786z"/>
		</g>
	</g>
	<g>
		<g>
			<path fill="#FFFFFF" d="M1754.519,362.319c1.18-26.452,0.293-53.011,0.17-79.476c-0.191-39.925-2.631-79.816-9.168-119.241
				c-2.621-15.799-23.506-27.097-38.25-21.716c-24.596,8.979-47.172,21.164-68.631,36.098
				c-21.072,14.664-41.361,31.511-59.877,45.479c-17.01,12.829-20.016,32.085-6.293,48.832
				c14.332,17.494,39.76,24.383,60.078,31.941c2.309,0.859,4.609,1.751,6.904,2.653c-7.424-2.917-0.725-0.278,0.705,0.391
				c5.35,2.507,10.166,6.19,15.074,9.446c12.631,8.375,25.34,16.547,39.125,22.916c10.361,4.789,21.088,6.034,31.385,0
				c8.846-5.181,16.299-16.188,15.4-26.846c-1.561-18.514-5.109-36.498-9.814-54.437c-4.229-16.121-9.02-34.686-10.08-47.271
				c-1.178-13.95-8.639-26.078-22.826-29.982c-17.613-4.845-32.105,5.938-38.25,21.716c1.607-3.591,1.596-3.88-0.033-0.866
				c3.508-5.983,0.373-0.715-1.223,0.828c-5.635,5.437,5.277-3.512-1.367,0.94c-2.066,1.385-4.252,2.604-6.408,3.84
				c-10.656,6.104-20.535,11.871-30.303,19.433c-9.947,7.695-12.482,27.717-4.863,37.678c17.473,22.841,43.85,32.192,72.123,32.682
				c16.951,0.294,31.092-14.366,31.092-31.092c0-17.171-14.148-30.799-31.092-31.093c-1.596-0.027-11.975-1.049-4.02,0.094
				c-3.518-0.506-6.963-1.388-10.383-2.334c-1.699-0.501-3.379-1.065-5.037-1.694c3.402,1.475,3.539,1.443,0.412-0.092
				c-2.963-1.914-2.865-1.649,0.295,0.793c-2.436-2.454-2.336-2.003,0.303,1.353c-1.621,12.56-3.242,25.119-4.863,37.678
				c-5.801,4.491,1.168-0.377,2.088-0.954c2.176-1.366,4.438-2.596,6.68-3.846c5.154-2.87,10.361-5.606,15.359-8.748
				c15.018-9.44,24.793-21.615,31.201-38.065c-20.361-2.755-40.717-5.509-61.076-8.265c1.564,18.514,5.115,36.497,9.82,54.438
				c4.229,16.121,9.016,34.685,10.076,47.27c15.596-8.949,31.191-17.897,46.785-26.847c-23.68-10.942-43.41-28.334-67.59-38.144
				c-9.514-3.859-19.232-7.175-28.76-10.993c6.77,2.713-0.963-0.53-1.967-1.003c-2.168-1.022-4.262-2.185-6.348-3.364
				c-1.6-0.905-7.393-5.431-0.752-0.054c-1.471-1.191-2.693-2.61-3.887-4.065c-2.098,16.276-4.193,32.554-6.293,48.832
				c35.613-26.863,73.225-60.544,113.658-75.306c-12.752-7.238-25.5-14.477-38.25-21.716c0.658,3.955,1.262,7.913,1.828,11.88
				c-0.822-5.765,0.711,6.371,0.832,7.466c1.1,9.865,1.885,19.765,2.557,29.668c1.213,17.878,1.67,35.783,1.73,53.696
				c0.088,26.471,1.014,53.021-0.168,79.476c-0.758,16.943,14.713,31.092,31.092,31.092
				C1740.947,393.411,1753.763,379.245,1754.519,362.319L1754.519,362.319z"/>
		</g>
	</g>
</g>
</svg>
