<?xml version="1.0" encoding="utf-8"?>
<!DOCTYPE svg PUBLIC "-//W3C//DTD SVG 1.1//EN" "http://www.w3.org/Graphics/SVG/1.1/DTD/svg11.dtd">
<svg version="1.1" id="Layer_1" xmlns="http://www.w3.org/2000/svg" xmlns:xlink="http://www.w3.org/1999/xlink" x="0px" y="0px"
	 viewBox="0 0 1551.964 306.33"
	 xml:space="preserve">
<g>
	<g>
		<path class="letter" fill="#FFC011" d="M76.104,272.875c-0.44-10.466-2.237-20.811-2.764-31.274c-0.588-11.671-1.399-23.331-2.257-34.985
			c-0.946-12.848-2.063-25.646-3.361-38.459c-2.687-26.519-5.851-54.074-2.504-80.664c-0.381,2.836-0.762,5.671-1.143,8.507
			c0.654-4.834,1.559-9.672,3.455-14.19c-1.076,2.548-2.151,5.096-3.226,7.644c0.671-1.492,1.439-2.895,2.434-4.197
			c-1.667,2.159-3.335,4.318-5.003,6.477c0.161-0.204,0.341-0.388,0.542-0.553c-2.159,1.668-4.317,3.336-6.477,5.004
			c0.184-0.151,0.384-0.276,0.599-0.378c-2.548,1.075-5.096,2.151-7.645,3.226c0.209-0.098,0.427-0.167,0.654-0.209
			c-2.836,0.381-5.671,0.762-8.507,1.143c0.373-0.047,0.703-0.048,1.077-0.014c-2.835-0.381-5.671-0.762-8.507-1.143
			c0.413,0.078,0.789,0.186,1.184,0.328c-2.548-1.075-5.096-2.15-7.644-3.226c0.962,0.417,1.813,0.966,2.655,1.589
			c-2.159-1.668-4.318-3.336-6.477-5.003c3.261,2.58,5.916,5.844,8.451,9.115c-1.668-2.159-3.336-4.317-5.004-6.477
			c9.877,12.962,17.859,27.313,25.911,41.443c13.964,24.508,30.189,47.272,45.783,70.72c7.468,11.229,14.864,22.554,21.717,34.171
			c6.244,10.585,12.257,21.312,19.14,31.503c4.178,6.186,8.715,12.222,13.694,17.782c3.516,3.927,7.519,7.019,11.848,10.096
			c2.828,2.01,6.449,3.356,9.902,3.913c5.671,1.524,11.342,1.524,17.014,0c3.182-0.335,6.144-1.469,8.886-3.398
			c17.886-7.571,19.48-30.946,19.654-47.538c0.124-11.834-0.896-23.648-1.681-35.446c-1.205-18.115-1.758-36.31-1.918-54.46
			c-0.28-31.631-3.406-63.179-3.466-94.815c-0.033-17.443-14.531-32-32-32c-17.419,0-32.033,14.556-32,32
			c0.064,34.231,3.246,68.38,3.507,102.615c0.137,17.948,1.124,35.976,2.381,53.879c0.941,13.396,2.129,27.171,0.475,40.552
			c0.381-2.836,0.762-5.672,1.143-8.507c-0.311,2.188-0.71,4.336-1.482,6.412c1.075-2.548,2.15-5.096,3.226-7.644
			c-0.085,0.197-0.17,0.395-0.255,0.592c3.827-3.826,7.653-7.653,11.48-11.479c-0.455,0.192-0.91,0.385-1.364,0.577
			c2.548-1.075,5.096-2.15,7.644-3.226c-0.414,0.058-0.828,0.115-1.242,0.173c5.671,0,11.342,0,17.014,0
			c-0.385-0.062-0.77-0.124-1.155-0.186c2.548,1.075,5.096,2.15,7.644,3.226c-0.811-0.284-1.541-0.709-2.19-1.274
			c2.159,1.668,4.318,3.336,6.477,5.004c-3.015-2.723-5.68-5.8-8.186-8.991c1.668,2.158,3.336,4.317,5.004,6.476
			c-7.411-9.696-13.534-20.319-19.671-30.845c-6.392-10.961-13.104-21.684-19.997-32.338
			c-16.647-25.733-34.587-50.384-50.064-76.887c-7.81-13.373-15.235-26.96-24.133-39.663c-7.145-10.2-13.94-18.316-23.874-25.679
			c-5.404-4.006-13.627-6.049-20.253-5.971c-13.437,0.158-23.02,7.393-30.437,17.941c-4.24,6.03-6.601,14.205-7.9,21.483
			c-1.696,9.5-2.597,19.134-2.832,28.774c-0.4,16.484,0.801,33.012,2.247,49.422c1.104,12.523,2.615,25.009,3.58,37.544
			c1.047,13.596,2.068,27.193,2.893,40.805c0.829,13.675,2.73,27.314,3.306,40.984c0.733,17.423,14.001,32,32,32
			C60.992,304.875,76.837,290.313,76.104,272.875L76.104,272.875z"/>
	</g>
</g>
<g>
	<g>
		<path class="letter" fill="#FFC011" d="M303.771,232.777c21.406-0.746,42.215-9.162,61.111-18.584c20.398-10.17,40.124-24.633,52.384-44.162
			c15.608-24.862,9.086-56.609-11.542-76.493c-9.217-8.885-21.351-15.298-33.877-17.895c-14.177-2.939-26.777-2.195-40.96-0.081
			c-11.53,1.719-22.21,5.963-32.863,10.527c-7.722,3.308-15.11,7.352-21.792,12.462c-10.632,8.13-18.427,16.389-26.366,27.263
			c-6.158,8.434-10.268,17.979-14.085,27.648c-13.439,34.039-9.088,78.403,12.676,108.137c16.267,22.223,39.63,38.729,67.355,42.753
			c17.641,2.559,33.814,1.984,51.408-1.473c17.532-3.446,36.331-10.108,49.684-22.307c12.881-11.767,11.912-33.343,0-45.254
			c-12.745-12.746-32.387-11.755-45.255,0c-0.427,0.416-0.881,0.801-1.362,1.153c2.159-1.668,4.318-3.336,6.477-5.004
			c-3.77,2.673-7.994,4.631-12.226,6.45c2.548-1.075,5.096-2.15,7.644-3.227c-9.355,3.885-19.403,6.301-29.413,7.741
			c2.835-0.381,5.671-0.762,8.507-1.143c-8.967,1.194-17.979,1.394-26.957,0.204c2.835,0.381,5.671,0.762,8.507,1.144
			c-6.531-0.948-12.873-2.61-18.984-5.11c2.548,1.076,5.096,2.151,7.644,3.227c-5.627-2.389-10.884-5.423-15.747-9.128
			c2.159,1.667,4.317,3.335,6.477,5.003c-4.646-3.636-8.787-7.783-12.44-12.414c1.668,2.158,3.336,4.317,5.004,6.477
			c-4.12-5.354-7.478-11.178-10.128-17.39c1.075,2.548,2.151,5.096,3.226,7.644c-2.849-6.886-4.766-14.059-5.821-21.434
			c0.381,2.836,0.762,5.672,1.143,8.507c-1.083-8.149-1.09-16.349-0.064-24.504c-0.381,2.835-0.762,5.671-1.143,8.507
			c1.13-8.323,3.319-16.408,6.564-24.156c-1.076,2.548-2.151,5.096-3.226,7.644c3.034-7.039,6.882-13.632,11.538-19.723
			c-1.668,2.159-3.336,4.317-5.004,6.477c3.883-4.968,8.18-9.556,13.146-13.454c-2.159,1.668-4.317,3.336-6.477,5.004
			c6.683-5.11,14.071-9.154,21.792-12.462c-2.548,1.075-5.096,2.15-7.644,3.226c8.784-3.666,17.93-6.318,27.369-7.608
			c-2.836,0.381-5.671,0.762-8.507,1.143c6.271-0.779,12.552-0.928,18.827-0.11c-2.835-0.381-5.671-0.762-8.507-1.143
			c4.248,0.632,8.344,1.699,12.304,3.369c-2.548-1.076-5.096-2.151-7.644-3.226c2.941,1.324,5.665,2.93,8.221,4.898
			c-2.159-1.668-4.317-3.336-6.476-5.004c2.311,1.882,4.347,3.97,6.181,6.319c-1.668-2.159-3.335-4.318-5.003-6.477
			c1.913,2.597,3.473,5.346,4.784,8.292c-1.075-2.548-2.151-5.096-3.226-7.644c0.988,2.384,1.809,4.745,2.211,7.299
			c-0.381-2.836-0.762-5.671-1.143-8.507c0.227,1.912,0.235,3.778,0.035,5.692c0.381-2.835,0.762-5.671,1.144-8.507
			c-0.352,2.52-1.038,4.9-2.001,7.252c1.075-2.548,2.15-5.096,3.226-7.644c-1.369,3.1-3.123,5.938-5.148,8.651
			c1.667-2.159,3.335-4.317,5.003-6.477c-4.116,5.305-9.036,9.838-14.312,13.968c2.159-1.668,4.317-3.336,6.477-5.004
			c-10.559,8.092-22.304,14.507-34.52,19.724c2.548-1.076,5.096-2.151,7.644-3.227c-9.415,3.948-19.23,7.389-29.368,8.874
			c2.835-0.381,5.671-0.762,8.507-1.143c-1.659,0.221-3.315,0.379-4.988,0.438c-17.428,0.607-32,14.097-32,32
			C271.771,217.761,286.329,233.384,303.771,232.777L303.771,232.777z"/>
	</g>
</g>
<g>
	<g>
		<path class="letter" fill="#FFC011" d="M434.437,67.662c-0.137,34.229,1.547,68.612,3.348,102.788c0.932,17.68,2.065,35.348,3.148,53.019
			c1.038,16.937,1.531,33.948,2.837,50.861c1.343,17.385,13.54,32,32,32c16.426,0,33.345-14.586,32-32
			c-2.617-33.882-4.039-67.977-5.88-101.916c-1.89-34.823-3.593-69.872-3.453-104.752c0.07-17.444-14.609-32-32-32
			C448.94,35.662,434.507,50.219,434.437,67.662L434.437,67.662z"/>
	</g>
</g>
<g>
	<g>
		<path class="letter" fill="#FFC011" d="M566.953,94.031c-25.588,18.731-52.207,35.952-77.925,54.47c-15.468,11.138-37.334,25.47-36.863,47.141
			c0.489,22.494,19.897,33.608,35.796,45.4c-2.159-1.668-4.317-3.336-6.477-5.004c12.486,9.673,25.415,18.705,37.917,28.348
			c-2.159-1.668-4.318-3.336-6.477-5.004c15.438,11.952,30.839,24.173,45.054,37.575c12.682,11.958,32.655,12.601,45.255,0
			c12.057-12.057,12.69-33.289,0-45.254c-24.42-23.025-51.945-42.11-78.555-62.4c2.159,1.668,4.318,3.336,6.477,5.003
			c-7.124-5.552-14.441-10.779-21.614-16.252c2.159,1.668,4.318,3.336,6.477,5.003c-2.822-2.197-5.641-4.465-7.877-7.278
			c1.668,2.159,3.336,4.317,5.003,6.477c-0.4-0.564-0.745-1.112-1.052-1.732c1.075,2.548,2.15,5.096,3.226,7.644
			c-0.148-0.329-0.247-0.673-0.296-1.031c0.381,2.836,0.762,5.672,1.143,8.507c-0.003-0.156-0.007-0.313-0.01-0.471
			c-0.381,2.836-0.762,5.671-1.143,8.507c0.03-0.146,0.059-0.292,0.089-0.438c-1.075,2.548-2.15,5.096-3.226,7.644
			c0.259-0.539,0.597-0.995,0.951-1.477c-1.668,2.158-3.336,4.317-5.004,6.477c3.637-4.621,8.401-8.332,13.012-11.924
			c-2.159,1.668-4.318,3.336-6.477,5.004c11.388-8.763,23.511-16.454,35.344-24.583c16.678-11.457,33.227-23.136,49.553-35.088
			c7.003-5.126,12.322-10.455,14.706-19.124c2.272-8.259,1.104-17.268-3.226-24.658C602.601,91.626,581.058,83.705,566.953,94.031
			L566.953,94.031z"/>
	</g>
</g>
<g>
	<g>
		<path class="letter" fill="#FFC011" d="M1134.287,107.94c-8.945-14.382-20.483-26.063-34.757-35.169c-13.866-8.846-29.273-12.593-45.338-14.522
			c-30.051-3.608-60.437,11.096-81.71,31.338c-43.234,41.139-51.354,111.296-21.508,162.336
			c17.72,30.303,49.041,48.932,83.945,50.66c34.052,1.686,66.305-15.154,89.519-38.886c12.191-12.462,12.431-32.824,0-45.254
			c-12.227-12.228-33.061-12.466-45.254,0c-3.909,3.995-7.742,7.895-12.153,11.352c2.159-1.668,4.317-3.336,6.477-5.004
			c-6.276,4.748-13.04,8.625-20.285,11.693c2.548-1.075,5.097-2.15,7.645-3.226c-6.887,2.784-13.973,4.749-21.326,5.815
			c2.836-0.381,5.672-0.762,8.507-1.143c-6.313,0.797-12.592,0.896-18.918,0.183c2.836,0.381,5.672,0.762,8.507,1.143
			c-5.805-0.782-11.373-2.232-16.795-4.456c2.548,1.076,5.096,2.151,7.645,3.227c-5.499-2.335-10.594-5.278-15.359-8.88
			c2.158,1.668,4.317,3.336,6.477,5.004c-4.929-3.88-9.268-8.299-13.123-13.244c1.668,2.159,3.336,4.317,5.004,6.477
			c-4.339-5.769-7.864-11.988-10.724-18.611c1.075,2.548,2.15,5.096,3.227,7.644c-3.516-8.479-5.835-17.302-7.112-26.388
			c0.381,2.836,0.762,5.672,1.143,8.507c-1.23-9.621-1.308-19.313-0.044-28.936c-0.381,2.835-0.762,5.671-1.143,8.507
			c1.277-8.67,3.662-17.03,7.057-25.106c-1.075,2.548-2.151,5.096-3.227,7.645c3.529-8.072,7.969-15.607,13.353-22.582
			c-1.668,2.159-3.336,4.318-5.004,6.477c4.826-6.064,10.243-11.51,16.353-16.282c-2.158,1.668-4.317,3.336-6.476,5.003
			c5.355-4.041,11.056-7.433,17.201-10.13c-2.548,1.075-5.097,2.15-7.645,3.226c5.966-2.484,12.113-4.245,18.519-5.13
			c-2.836,0.381-5.671,0.762-8.507,1.143c5.698-0.671,11.358-0.646,17.055,0.038c-2.836-0.381-5.671-0.762-8.507-1.143
			c6.255,0.875,12.268,2.515,18.107,4.921c-2.548-1.075-5.097-2.15-7.645-3.226c5.546,2.412,10.692,5.427,15.516,9.076
			c-2.159-1.668-4.318-3.336-6.477-5.003c4.978,3.927,9.363,8.378,13.244,13.391c-1.668-2.159-3.335-4.317-5.003-6.477
			c1.516,2.044,2.936,4.134,4.279,6.294c9.195,14.784,28.421,20.478,43.782,11.48
			C1137.536,143.094,1143.506,122.764,1134.287,107.94L1134.287,107.94z"/>
	</g>
</g>
<g>
	<g>
		<path class="letter" fill="#FFC011" d="M1314.413,185.568c-3.599-19.27-23.145-29.026-39.435-35.441c-12.915-5.085-27.531-6.941-41.309-6.519
			c-17.055,0.522-35.982,4.35-50.672,13.446c-12.259,7.592-22.758,18.991-29.25,31.857c-6.609,13.102-10.678,27.94-9.803,42.719
			c1.048,17.673,7.493,32.825,19.061,46.166c9.944,11.47,26.031,19.021,40.677,21.961c15.666,3.146,32.17,3.149,47.548-1.577
			c30.536-9.387,55.536-36.584,66.183-66.099c5.923-16.421-6.52-35.009-22.351-39.363c-17.806-4.898-33.451,5.957-39.364,22.35
			c-0.304,0.884-0.634,1.758-0.99,2.622c1.075-2.549,2.15-5.097,3.226-7.645c-2.399,5.599-5.587,10.689-9.286,15.518
			c1.668-2.159,3.336-4.317,5.004-6.477c-4.608,5.789-9.798,10.978-15.591,15.582c2.159-1.668,4.317-3.336,6.477-5.004
			c-4.504,3.448-9.25,6.521-14.478,8.756c2.548-1.075,5.096-2.15,7.644-3.226c-4.403,1.74-8.93,2.837-13.616,3.481
			c2.835-0.381,5.671-0.762,8.507-1.143c-5.453,0.631-10.871,0.622-16.324,0.004c2.835,0.382,5.671,0.763,8.507,1.144
			c-5.445-0.732-10.691-2.053-15.783-4.127c2.548,1.075,5.096,2.15,7.644,3.226c-3.643-1.595-7.024-3.513-10.199-5.911
			c2.159,1.668,4.317,3.335,6.477,5.003c-2.308-1.865-4.352-3.895-6.221-6.198c1.667,2.159,3.335,4.317,5.003,6.477
			c-1.931-2.544-3.525-5.219-4.849-8.126c1.075,2.549,2.15,5.097,3.227,7.645c-1.517-3.623-2.502-7.327-3.042-11.215
			c0.381,2.835,0.762,5.671,1.143,8.507c-0.439-3.935-0.409-7.821,0.035-11.754c-0.381,2.836-0.762,5.672-1.143,8.507
			c0.654-4.783,1.89-9.371,3.684-13.852c-1.075,2.548-2.15,5.096-3.227,7.644c1.896-4.453,4.264-8.59,7.171-12.462
			c-1.668,2.159-3.336,4.317-5.004,6.477c2.709-3.443,5.736-6.502,9.195-9.194c-2.158,1.668-4.317,3.336-6.477,5.004
			c2.856-2.104,5.854-3.858,9.104-5.279c-2.548,1.075-5.097,2.15-7.645,3.226c6.223-2.504,12.83-4.002,19.446-5.003
			c-2.835,0.381-5.671,0.762-8.507,1.143c7.683-1.009,15.32-1.114,23.018-0.201c-2.836-0.381-5.671-0.762-8.507-1.143
			c7.262,1.026,14.203,2.916,20.986,5.713c-2.548-1.075-5.096-2.15-7.644-3.226c3.653,1.58,7.172,3.365,10.346,5.786
			c-2.158-1.668-4.317-3.336-6.476-5.004c1.008,0.844,1.916,1.712,2.76,2.721c-1.668-2.158-3.336-4.317-5.004-6.477
			c0.501,0.703,0.9,1.372,1.258,2.156c-1.075-2.548-2.15-5.096-3.226-7.644c0.189,0.479,0.314,0.973,0.377,1.483
			c3.205,17.16,23.631,26.678,39.364,22.35c7.999-2.199,14.934-7.552,19.124-14.705
			C1315.808,202.336,1316.043,194.302,1314.413,185.568L1314.413,185.568z"/>
	</g>
</g>
<g>
	<g>
		<path class="letter" fill="#FFC011" d="M1191.062,130.682c10.11-3.279,20.996-5.787,31.522-7.284c-2.835,0.381-5.671,0.762-8.506,1.143
			c13.853-1.824,28.345-1.901,42.191-0.132c-2.836-0.381-5.671-0.762-8.507-1.143c5.492,0.776,10.802,1.97,15.941,4.088
			c-2.548-1.075-5.096-2.151-7.644-3.226c3.434,1.528,6.611,3.371,9.611,5.636c-2.158-1.668-4.317-3.335-6.476-5.003
			c2.772,2.221,5.228,4.687,7.458,7.452c-1.668-2.159-3.336-4.317-5.004-6.477c3.153,4.115,5.617,8.584,7.647,13.348
			c-1.075-2.548-2.151-5.096-3.227-7.645c4.896,12.036,6.934,24.943,8.668,37.749c-0.381-2.836-0.762-5.672-1.143-8.507
			c1.429,10.718,2.849,21.437,4.309,32.151c-0.381-2.836-0.762-5.672-1.143-8.507c3.768,29.018,3.306,58.241,3.292,87.437
			c-0.008,17.444,14.563,32,32,32c17.45,0,31.992-14.557,32-32c0.008-16.46,0.186-32.922-0.321-49.377
			c-0.576-18.722-2.872-37.103-5.382-55.649c0.381,2.835,0.762,5.671,1.144,8.507c-2.551-19.146-3.889-39.044-10.378-57.388
			c-4.428-12.517-10.119-22.603-18.696-32.694c-8.462-9.956-20.206-15.947-32.165-20.496c-9.832-3.74-21.054-4.497-31.446-5.134
			c-8.233-0.504-16.522-0.299-24.748,0.251c-16.048,1.075-32.703,4.219-48.014,9.185c-16.577,5.377-27.134,21.974-22.351,39.364
			C1156.166,124.571,1174.468,136.064,1191.062,130.682L1191.062,130.682z"/>
	</g>
</g>
<g>
	<g>
		<path class="letter" fill="#FFC011" d="M1356.198,83.819c-3.4,15.382-1.66,31.14-1.636,46.739c0.023,15.241,0.36,30.469,0.701,45.705
			c0.356,15.9,0.825,31.798,1.097,47.7c0.266,15.641-0.233,31.229-0.305,46.862c-0.079,17.444,14.616,32,32,32
			c17.504,0,31.921-14.558,32-32c0.138-30.232,0.024-60.353-0.699-90.588c-0.352-14.674-0.71-29.345-0.777-44.024
			c-0.033-7.18,0.129-14.375-0.136-21.55c-0.239-6.49-0.766-12.945,0.044-19.418c-0.381,2.836-0.763,5.671-1.144,8.507
			c0.142-0.983,0.331-1.956,0.569-2.92c3.762-17.017-4.903-34.564-22.351-39.364C1379.406,57.024,1359.963,66.785,1356.198,83.819
			L1356.198,83.819z"/>
	</g>
</g>
<g>
	<g>
		<path class="letter" fill="#FFC011" d="M1394.286,121.535c16.832-1.245,33.775-1.147,50.536,0.955c-2.836-0.381-5.672-0.762-8.507-1.143
			c12.984,1.749,25.213,5.181,37.277,10.268c-2.548-1.075-5.096-2.15-7.644-3.226c6.757,2.92,13.291,6.282,19.137,10.792
			c-2.159-1.668-4.317-3.336-6.477-5.003c3.124,2.505,5.923,5.278,8.374,8.448c-1.667-2.159-3.335-4.317-5.003-6.477
			c2.172,2.946,3.943,6.076,5.398,9.433c-1.075-2.548-2.15-5.096-3.226-7.644c2.139,5.236,3.4,10.684,4.193,16.274
			c-0.381-2.836-0.762-5.671-1.143-8.507c0.793,6.202,1.12,12.375,0.397,18.6c0.381-2.836,0.763-5.672,1.144-8.507
			c-0.651,4.742-1.854,9.296-3.688,13.72c1.076-2.548,2.151-5.096,3.227-7.644c-1.836,4.18-4.148,8.036-6.932,11.653
			c1.668-2.159,3.336-4.318,5.004-6.477c-3.313,4.14-7.099,7.769-11.281,11.021c2.158-1.668,4.317-3.336,6.477-5.004
			c-6.189,4.668-12.963,8.357-20.093,11.376c2.548-1.075,5.096-2.15,7.645-3.227c-11.291,4.646-23.166,7.555-35.248,9.208
			c2.836-0.381,5.671-0.762,8.507-1.144c-9.146,1.188-18.358,1.658-27.576,1.254c-17.438-0.766-32,15.136-32,32
			c0,18.022,14.579,31.235,32,32c20.59,0.904,42.063-1.871,61.713-8.074c11.089-3.501,22.185-8.193,32.043-14.415
			c11.99-7.566,20.974-16.589,29.327-27.881c15.851-21.427,16.791-51.297,10.387-76.192c-6.378-24.792-24.766-43.395-47.628-53.806
			c-8.394-3.822-17.086-7.427-25.917-10.151c-9.691-2.99-19.863-4.269-29.889-5.526c-16.761-2.102-33.704-2.2-50.536-0.955
			c-17.389,1.286-32,13.583-32,32C1362.286,106.003,1376.868,122.823,1394.286,121.535L1394.286,121.535z"/>
	</g>
</g>
<g class="cat-wrapper">
	<path class="cat" fill="#11CFFF" d="M877.547,160.358c10.604-0.018,21.209-0.231,31.813-0.415C906.48,85.775,842.169,36.997,769.049,36.997
		c-73.597,0-137.508,49.416-139.57,124.402c5.358,0.835,10.935,0.893,16.077,1.021c10.234,0.254,20.378,0.902,30.614,1.604
		c8.693,0.596,5.069,13.684-3.637,13.194c-13.872-0.78-27.557-0.944-42.713-1.814c0.931,12.211,3.516,23.868,7.508,34.814
		c13.358-5.126,25.989-12.205,39.31-17.459c8.218-3.242,11.747,9.995,3.638,13.193c-12.784,5.044-24.877,11.735-37.617,16.797
		c22.771,46.601,72.222,77.438,126.792,77.438c54.107,0,103.185-30.321,126.206-76.264c-2.042-0.693-3.977-1.429-5.688-2.043
		c-9.137-3.29-17.994-7.484-27.24-10.455c-8.365-2.688-4.787-15.901,3.637-13.194c7.767,2.495,15.218,5.986,22.855,8.844
		c3.947,1.477,7.927,2.95,11.988,4.09c4.392-11.748,7.157-24.326,7.988-37.536c-10.551,0.185-21.099,0.396-31.65,0.413
		C868.723,174.056,868.723,160.373,877.547,160.358z M790.993,200.017c-7.638-5.809-13.282-11.156-19.611-17.027
		c-5.421,5.391-12.479,11.613-18.139,16.758c-6.571,5.971-15.449-3.043-9.674-9.678c5.051-5.803,10.863-10.922,15.795-16.766
		c-6.901-10.641-11.869-21.072-11.869-21.072s-3.765-7.496-4.281-15.375c-0.414-6.319,1.063-9.96,4.311-11.364
		c10.125-4.375,16.748-3.323,24.5-3.125c7.932,0.202,20.831-0.251,25,6.875c7.518,12.857-5.174,32.688-14.88,43.998
		c4.404,5.131,11.237,10.162,17.062,15.678C805.598,194.976,797.949,205.306,790.993,200.017z"/>
	<g>
		<g>
			<path class="cat" fill="#11CFFF" d="M668.103,124.78c0.174-15.317-0.03-30.642-0.098-45.959c-0.037-8.215-0.051-16.431,0.182-24.645
				c0.178-6.284,0.591-12.558,1.276-18.807c0.241-1.992,0.272-2.257,0.093-0.795c0.237-1.653,0.537-3.295,0.839-4.938
				c0.583-3.169,1.377-6.292,2.281-9.383c-6.561,3.725-13.121,7.45-19.682,11.175c2.788,0.773,5.512,1.668,8.218,2.692
				c-1.186-0.535-0.894-0.402,0.876,0.398c1.536,0.696,3.028,1.483,4.519,2.268c2.449,1.29,4.799,2.758,7.121,4.261
				c0.911,0.6,1.811,1.215,2.701,1.844c-0.008-0.006,4.211,3.192,1.906,1.373c9.548,7.535,18.37,15.942,27.976,23.413
				c0-7.542,0-15.085,0-22.627c-0.37,0.503-0.775,0.975-1.218,1.415c-2.35,2.531,3.043-2.008-0.031,0.098
				c-1.999,1.37-4.229,2.411-6.42,3.425c-3.957,1.832,3.093-1.228-1.025,0.431c-1.232,0.497-2.476,0.968-3.717,1.444
				c-2.367,0.908-4.737,1.805-7.086,2.758c-12.598,5.11-22.663,14.245-34.904,20.082c8.025,4.605,16.05,9.21,24.076,13.815
				c-0.024,0.294,0.607-5.674,0.224-2.928c0.318-2.282,0.769-4.544,1.226-6.801c0.885-4.366,2.035-8.678,3.146-12.99
				c2.517-9.768,4.501-19.545,5.325-29.62c-10.476,1.418-20.952,2.835-31.429,4.253c3.194,8.423,7.967,13.965,15.192,19.183
				c2.126,1.536,4.474,2.781,6.756,4.063c1.172,0.659,2.338,1.326,3.498,2.007c0.607,0.356,5.175,3.621,2.272,1.306
				c1.079-8.376,2.159-16.752,3.238-25.129c-1.115,0.821-2.219,1.526-3.438,2.184c3.333-1.8-1.39,0.271-2.342,0.519
				c-4.04,1.05-8.104,1.833-12.086,3.116c-8.293,2.674-13.563,10.999-11.175,19.682c2.236,8.131,11.38,13.851,19.682,11.175
				c8.623-2.78,17.99-3.512,25.51-9.045c3.499-2.574,6.158-5.22,7.353-9.562c1.382-5.024,0.206-12.123-4.115-15.567
				c-4.66-3.715-9.409-6.701-14.569-9.629c-0.852-0.483-6.287-4.187-3.219-1.774c-0.982-0.772-1.834-1.677-2.675-2.595
				c2.878,3.142-0.473-2.257,0.975,1.559c-2.56-6.75-7.8-11.747-15.429-11.747c-9.259,0-15.29,7.311-16,16
				c0.024-0.294-0.607,5.674-0.224,2.928c-0.318,2.282-0.769,4.544-1.226,6.801c-0.885,4.366-2.035,8.678-3.146,12.99
				c-2.517,9.768-4.501,19.545-5.325,29.62c-0.448,5.49,3.364,11.144,7.924,13.815c5.255,3.079,10.868,2.52,16.151,0
				c6.36-3.033,12.234-6.844,18.052-10.798c2.667-1.813,5.271-3.826,8.088-5.399c0.912-0.509,1.873-0.934,2.822-1.367
				c-3.962,1.81-0.173,0.091,0.564-0.2c10.528-4.166,23.975-7.603,31.351-16.894c4.872-6.135,7.431-16.848,0-22.627
				c-11.101-8.635-21.297-18.354-32.467-26.904c-10.445-7.997-22.271-14.051-34.97-17.576c-8.502-2.36-17.24,2.826-19.682,11.175
				C635.584,33.07,635.909,55.91,636,77.928c0.065,15.615,0.279,31.237,0.102,46.852c-0.099,8.723,7.353,16,16,16
				C660.899,140.78,668.003,133.5,668.103,124.78L668.103,124.78z"/>
		</g>
	</g>
	<g>
		<g>
			<path class="cat" fill="#11CFFF" d="M902.872,122.996c0.607-13.612,0.151-27.279,0.087-40.898c-0.098-20.545-1.354-41.073-4.718-61.361
				c-1.348-8.13-12.096-13.944-19.683-11.175c-12.657,4.621-24.274,10.891-35.317,18.576c-10.844,7.546-21.285,16.215-30.813,23.403
				c-8.753,6.602-10.3,16.511-3.238,25.129c7.375,9.002,20.46,12.547,30.916,16.437c1.188,0.442,2.372,0.901,3.553,1.365
				c-3.82-1.501-0.373-0.143,0.363,0.201c2.753,1.29,5.231,3.186,7.757,4.861c6.5,4.31,13.04,8.515,20.134,11.793
				c5.331,2.464,10.851,3.105,16.15,0c4.552-2.666,8.387-8.331,7.925-13.815c-0.803-9.527-2.629-18.782-5.05-28.013
				c-2.176-8.296-4.642-17.849-5.188-24.325c-0.606-7.179-4.445-13.42-11.746-15.429c-9.064-2.493-16.521,3.056-19.683,11.175
				c0.827-1.848,0.821-1.997-0.017-0.446c1.805-3.079,0.192-0.368-0.63,0.426c-2.899,2.798,2.716-1.807-0.703,0.484
				c-1.063,0.713-2.188,1.34-3.298,1.976c-5.483,3.141-10.567,6.109-15.594,10c-5.118,3.96-6.423,14.263-2.502,19.389
				c8.991,11.754,22.565,16.566,37.114,16.818c8.723,0.151,16-7.393,16-16c0-8.836-7.281-15.849-16-16
				c-0.821-0.014-6.162-0.54-2.068,0.048c-1.81-0.26-3.583-0.714-5.343-1.201c-0.875-0.258-1.739-0.548-2.592-0.872
				c1.751,0.759,1.821,0.743,0.212-0.047c-1.525-0.985-1.475-0.849,0.152,0.408c-1.254-1.263-1.202-1.031,0.155,0.696
				c-0.834,6.463-1.668,12.926-2.502,19.389c-2.985,2.311,0.601-0.194,1.074-0.491c1.12-0.703,2.284-1.336,3.438-1.979
				c2.652-1.477,5.331-2.885,7.903-4.502c7.728-4.858,12.759-11.123,16.056-19.588c-10.477-1.418-20.952-2.835-31.429-4.253
				c0.805,9.527,2.632,18.781,5.053,28.013c2.176,8.296,4.64,17.849,5.186,24.325c8.025-4.605,16.051-9.21,24.075-13.815
				c-12.185-5.631-22.339-14.581-34.782-19.629c-4.895-1.986-9.896-3.692-14.799-5.657c3.483,1.396-0.496-0.273-1.012-0.516
				c-1.116-0.526-2.193-1.124-3.267-1.731c-0.823-0.466-3.804-2.795-0.387-0.028c-0.757-0.613-1.386-1.343-2-2.092
				c-1.079,8.376-2.158,16.752-3.238,25.129c18.326-13.824,37.681-31.156,58.488-38.752c-6.562-3.725-13.122-7.45-19.683-11.175
				c0.338,2.035,0.649,4.072,0.941,6.113c-0.424-2.966,0.365,3.279,0.428,3.842c0.566,5.077,0.97,10.171,1.315,15.267
				c0.624,9.2,0.86,18.414,0.891,27.632c0.045,13.622,0.521,27.285-0.087,40.898c-0.39,8.719,7.572,16,16,16
				C895.888,138.996,902.483,131.706,902.872,122.996L902.872,122.996z"/>
		</g>
	</g>
</g>
</svg>
